HIERARCHY
ROOT root
{
	OFFSET	0	13.1	24.9
	CHANNELS 6  Xposition Yposition Zposition Xrotation Yrotation Zrotation
	JOINT spine_1
	{
		OFFSET	0	9.99999	0
		CHANNELS 3  Xrotation Yrotation Zrotation
		JOINT spine_2
		{
			OFFSET	0	112	-10
			CHANNELS 3  Xrotation Yrotation Zrotation
			JOINT spine_3
			{
				OFFSET	0	206.5	19.3
				CHANNELS 3  Xrotation Yrotation Zrotation
				JOINT spine_4
				{
					OFFSET	0	110.4	14.6
					CHANNELS 3  Xrotation Yrotation Zrotation
					JOINT neck_1
					{
						OFFSET	0	71.8	-50.3
						CHANNELS 3  Xrotation Yrotation Zrotation
						JOINT neck_2
						{
							OFFSET	0	86.2	-25.8
							CHANNELS 3  Xrotation Yrotation Zrotation
							JOINT head_ee
							{
								OFFSET	0	179.8	-8.7
								CHANNELS 3  Xrotation Yrotation Zrotation
								End Site
								{
									OFFSET	1	0	0
								}
							}
						}
					}
					JOINT left_clavicle
					{
						OFFSET	-43.2	22.4	-70.8
						CHANNELS 3  Xrotation Yrotation Zrotation
						JOINT left_shoulder
						{
							OFFSET	-93.9	-5.79999	48.7
							CHANNELS 3  Xrotation Yrotation Zrotation
							JOINT left_elbow
							{
								OFFSET	-291.4	-30.8	15.2
								CHANNELS 3  Xrotation Yrotation Zrotation
								JOINT left_lowarm_twist
								{
									OFFSET	-110.7	-3.89999	13.6
									CHANNELS 3  Xrotation Yrotation Zrotation
									JOINT left_hand
									{
										OFFSET	-110.7	-3.89999	13.6
										CHANNELS 3  Xrotation Yrotation Zrotation
										JOINT left_ee
										{
											OFFSET	-80.8	-5.10001	12.1
											CHANNELS 3  Xrotation Yrotation Zrotation
											End Site
											{
												OFFSET	1	0	0
											}
										}
									}
								}
							}
						}
					}
					JOINT right_clavicle
					{
						OFFSET	43.2	22.4	-70.8
						CHANNELS 3  Xrotation Yrotation Zrotation
						JOINT right_shoulder
						{
							OFFSET	93.9	-5.79999	48.7
							CHANNELS 3  Xrotation Yrotation Zrotation
							JOINT right_elbow
							{
								OFFSET	291.4	-30.8	15.2
								CHANNELS 3  Xrotation Yrotation Zrotation
								JOINT right_lowarm_twist
								{
									OFFSET	110.7	-3.89999	13.6
									CHANNELS 3  Xrotation Yrotation Zrotation
									JOINT right_hand
									{
										OFFSET	110.7	-3.89999	13.6
										CHANNELS 3  Xrotation Yrotation Zrotation
										JOINT right_ee
										{
											OFFSET	80.8	-5.10001	12.1
											CHANNELS 3  Xrotation Yrotation Zrotation
											End Site
											{
												OFFSET	1	0	0
											}
										}
									}
								}
							}
						}
					}
				}
			}
		}
	}
	JOINT left_hip
	{
		OFFSET	-82.8	-127.5	0.300001
		CHANNELS 3  Xrotation Yrotation Zrotation
		JOINT left_knee
		{
			OFFSET	-28.2	-396.7	2.2
			CHANNELS 3  Xrotation Yrotation Zrotation
			JOINT left_ankle
			{
				OFFSET	-11.7	-411.3	35.4
				CHANNELS 3  Xrotation Yrotation Zrotation
				JOINT left_toes
				{
					OFFSET	0	-60	-88.6
					CHANNELS 3  Xrotation Yrotation Zrotation
					JOINT left_foot_ee
					{
						OFFSET	-22.5	-16.5	-42.2
						CHANNELS 3  Xrotation Yrotation Zrotation
						End Site
						{
							OFFSET	1	0	0
						}
					}
				}
			}
		}
	}
	JOINT right_hip
	{
		OFFSET	82.8	-127.5	0.300001
		CHANNELS 3  Xrotation Yrotation Zrotation
		JOINT right_knee
		{
			OFFSET	28.2	-396.7	2.2
			CHANNELS 3  Xrotation Yrotation Zrotation
			JOINT right_ankle
			{
				OFFSET	11.7	-411.3	35.4
				CHANNELS 3  Xrotation Yrotation Zrotation
				JOINT right_toes
				{
					OFFSET	0	-60	-88.6
					CHANNELS 3  Xrotation Yrotation Zrotation
					JOINT right_foot_ee
					{
						OFFSET	22.5	-16.5	-42.2
						CHANNELS 3  Xrotation Yrotation Zrotation
						End Site
						{
							OFFSET	1	0	0
						}
					}
				}
			}
		}
	}
}
MOTION
Frames: 13
Frame Time: 0.02
3574.42 741.953 -1474.73 149.66886934 81.3889302194 -145.711570619 -2.00715 -0.333388 -1.96531 -2.00502 -0.207679 -1.98254 -1.9955 0.282594 -1.97326 -2.00093 -0.0325277 -1.99312 -19.1459 0.19737 8.81347 -18.9542 -4.23465 8.29216 -0.0 0.0 -0.0 6.16773 23.509 11.2556 -7.76878 -22.935 64.0504 1.12011 -29.0237 0.289937 -76.2808 -7.34842 5.31434 1.1576 22.6366 15.9567 -0.0 0.0 -0.0 3.16119 7.05027 -5.5962 0.74407 13.3305 -67.0564 1.46409 35.95 -0.475029 81.9977 4.07078 8.71834 -1.57697 -16.8837 2.76124 0.0 0.0 0.0 6.09651 44.3513 -18.3435 -0.317894 0.0129594 0.0470628 24.3005 -9.95116 -3.39117 -26.8585 0.0 0.0 -0.0 0.0 -0.0 7.29611 15.729 -8.31454 -12.5638 -0.310116 -1.89931 24.4375 -8.01187 3.2661 -24.6213 0.0 0.0 0.0 0.0 0.0 
3567.06052053 739.886 -1472.13412598 134.643221169 84.2687266126 -130.697030247 -1.8878 -0.218785 -2.01394 -1.88555 -0.0902167 -2.02378 -1.88017 0.402646 -1.98538 -1.88566 0.0841064 -2.02404 -14.5111 1.17231 8.74628 -14.3031 -3.03928 8.66806 -0.0 0.0 -0.0 5.6993 24.4592 10.5371 -7.52275 -24.0133 64.1789 1.29461 -32.671 0.379455 -77.7934 -7.54128 5.30401 0.566924 23.832 12.8129 -0.0 0.0 -0.0 3.22871 5.887 -5.82073 1.77004 11.1351 -66.2558 1.26262 32.0231 -0.362339 81.1948 3.97699 8.67568 -1.72075 -16.4976 3.82232 0.0 0.0 0.0 6.19974 45.5182 -18.6594 -0.808025 0.0324267 0.11976 25.5836 -10.9508 -3.56304 -27.416 0.0 0.0 -0.0 0.0 -0.0 6.60366 15.9199 -7.78531 -12.0543 -0.305691 -1.82126 23.1326 -5.83245 3.11184 -24.6541 0.0 0.0 0.0 0.0 0.0 
3559.18019018 741.8 -1472.81598313 113.385874982 86.046865262 -109.098655434 -1.81857 -0.206919 -2.16788 -1.81596 -0.0685851 -2.17665 -1.8109 0.458129 -2.12902 -1.81721 0.116225 -2.17462 -16.2634 0.98806 8.4604 -16.0716 -2.95763 8.30125 -0.0 0.0 -0.0 5.78532 23.9924 10.6853 -8.46117 -25.3212 63.3854 1.43842 -35.4696 0.460042 -78.2662 -7.60149 5.29973 0.542284 24.0969 12.7569 -0.0 0.0 -0.0 3.26453 4.62548 -5.98411 1.39187 9.54413 -65.0379 1.14116 29.4784 -0.300222 80.5357 3.90045 8.63968 -1.80478 -14.6589 5.21632 0.0 0.0 0.0 5.75039 46.3732 -18.4339 1.29095 -0.0553086 -0.190375 25.6256 -11.474 -3.57844 -26.6072 0.0 0.0 -0.0 0.0 -0.0 6.43877 16.308 -8.08457 -11.4101 -0.299101 -1.72263 22.3334 -6.6179 3.01577 -25.4881 0.0 0.0 0.0 0.0 0.0 
3552.83453319 739.062 -1472.56328741 67.2386141372 86.2244204765 -62.6773023584 -1.85139 -0.177285 -2.21408 -1.84866 -0.036074 -2.22087 -1.84474 0.501651 -2.1638 -1.85124 0.153712 -2.21584 -14.5093 1.40989 7.64264 -14.3477 -1.91759 7.695 -0.0 0.0 -0.0 5.54822 24.3997 10.3319 -8.98985 -25.9935 63.1849 1.70529 -40.186 0.623849 -78.8216 -7.67216 5.29406 0.00333568 24.5292 9.77461 -0.0 0.0 -0.0 3.44877 5.89407 -6.26554 1.92319 4.87336 -64.5306 0.754181 20.4856 -0.136282 78.913 3.7138 8.54731 -1.64576 -12.0968 5.42868 0.0 0.0 0.0 5.6813 45.629 -18.6398 1.18259 -0.0505007 -0.174442 24.3481 -12.1327 -3.43839 -26.2066 0.0 0.0 -0.0 0.0 -0.0 6.47609 15.6666 -8.23314 -11.6484 -0.301668 -1.7591 28.787 -6.63349 3.75708 -27.5895 0.0 0.0 0.0 0.0 0.0 
3544.71808551 738.427 -1476.60068212 38.4822092289 84.7919784818 -33.6317225639 -1.72393 -0.097115 -2.3021 -1.72098 0.0495312 -2.30362 -1.7205 0.599971 -2.22471 -1.72732 0.241188 -2.2915 -12.9042 2.20813 7.73228 -12.7358 -0.673892 8.04145 -0.0 0.0 -0.0 4.72221 24.2905 9.19906 -9.88329 -26.8536 63.0933 1.96113 -44.1666 0.795734 -79.495 -7.75774 5.28626 -0.17969 22.7469 8.05005 -0.0 0.0 -0.0 4.28957 4.08172 -8.07403 3.53603 1.71519 -62.2863 0.565026 15.637 -0.0775852 79.0223 3.72628 8.5537 -1.42996 -9.61379 5.20086 0.0 0.0 0.0 7.02862 45.4713 -19.9777 -1.25446 0.0496165 0.186116 25.4751 -12.7939 -3.58836 -25.3341 0.0 0.0 -0.0 0.0 -0.0 5.41581 13.5385 -8.92303 -11.0637 -0.295101 -1.66964 30.454 -6.23502 3.93642 -29.2992 0.0 0.0 0.0 0.0 0.0 
3534.10477658 734.701 -1482.99280228 25.2338750996 83.2810335281 -20.4751028004 -1.57305 -0.168641 -2.32403 -1.57004 -0.0204564 -2.33005 -1.56667 0.532217 -2.26857 -1.57381 0.16736 -2.32412 -12.2575 2.83609 8.09084 -12.0731 0.196133 8.56824 -0.0 0.0 -0.0 4.20381 24.2768 8.48875 -10.1581 -27.2257 63.0084 2.18465 -47.2549 0.955791 -80.0917 -7.83347 5.2785 -0.371478 21.5285 6.45385 -0.0 0.0 -0.0 5.01206 4.19604 -9.52091 4.71042 -1.31832 -60.7792 0.370965 10.413 -0.033803 78.9713 3.72046 8.55072 -1.40844 -8.19103 5.71448 0.0 0.0 0.0 8.01527 44.5638 -21.1563 -3.10285 0.115261 0.462182 25.9168 -13.3041 -3.65255 -24.7184 0.0 0.0 -0.0 0.0 -0.0 4.87956 12.257 -8.58174 -11.1021 -0.295559 -1.6755 32.8829 -5.94505 4.18833 -30.2205 0.0 0.0 0.0 0.0 0.0 
3523.74628278 734.421 -1489.55708277 22.9040266019 82.3497767977 -18.082499411 -1.43376 -0.176164 -2.36049 -1.43066 -0.0256457 -2.36691 -1.42708 0.530294 -2.30692 -1.43447 0.159411 -2.36168 -11.8101 3.4109 8.31254 -11.6165 1.07393 8.94029 -0.0 0.0 -0.0 4.41309 24.0175 8.78095 -10.596 -25.4077 62.4111 2.34626 -49.2846 1.07641 -81.4523 -8.00578 5.25783 -0.676721 20.3869 4.18981 -0.0 0.0 -0.0 5.12 2.94484 -9.79059 4.171 -3.43908 -60.4845 0.212276 6.00304 -0.0111306 79.1208 3.73755 8.55943 -1.40497 -8.03848 5.76181 0.0 0.0 0.0 8.88478 43.8716 -22.0843 -5.2259 0.179616 0.781631 25.2446 -14.456 -3.59882 -23.9101 0.0 0.0 -0.0 0.0 -0.0 3.73192 11.052 -8.53325 -11.3016 -0.297882 -1.70603 33.8727 -7.06907 4.28888 -31.0481 0.0 0.0 0.0 0.0 0.0 
3524.26787241 734.421 -1491.23551721 18.4219978876 80.5636762755 -13.550781934 -1.43376 -0.176164 -2.36049 -1.43066 -0.0256457 -2.36691 -1.42708 0.530294 -2.30692 -1.43447 0.159411 -2.36168 -11.8101 3.4109 8.31254 -11.6165 1.07393 8.94029 -0.0 0.0 -0.0 4.41309 24.0175 8.78095 -10.596 -25.4077 62.4111 2.34626 -49.2846 1.07641 -81.4523 -8.00578 5.25783 -0.676721 20.3869 4.18981 -0.0 0.0 -0.0 5.12 2.94484 -9.79059 4.171 -3.43908 -60.4845 0.212276 6.00304 -0.0111306 79.1208 3.73755 8.55943 -1.40497 -8.03848 5.76181 0.0 0.0 0.0 8.88478 43.8716 -22.0843 -5.2259 0.179616 0.781631 25.2446 -14.456 -3.59882 -23.9101 0.0 0.0 -0.0 0.0 -0.0 3.73192 11.052 -8.53325 -11.3016 -0.297882 -1.70603 33.8727 -7.06907 4.28888 -31.0481 0.0 0.0 0.0 0.0 0.0 
3524.91879302 734.421 -1493.09568833 15.0822570601 78.5147884793 -10.1551699412 -1.43376 -0.176164 -2.36049 -1.43066 -0.0256457 -2.36691 -1.42708 0.530294 -2.30692 -1.43447 0.159411 -2.36168 -11.8101 3.4109 8.31254 -11.6165 1.07393 8.94029 -0.0 0.0 -0.0 4.41309 24.0175 8.78095 -10.596 -25.4077 62.4111 2.34626 -49.2846 1.07641 -81.4523 -8.00578 5.25783 -0.676721 20.3869 4.18981 -0.0 0.0 -0.0 5.12 2.94484 -9.79059 4.171 -3.43908 -60.4845 0.212276 6.00304 -0.0111306 79.1208 3.73755 8.55943 -1.40497 -8.03848 5.76181 0.0 0.0 0.0 8.88478 43.8716 -22.0843 -5.2259 0.179616 0.781631 25.2446 -14.456 -3.59882 -23.9101 0.0 0.0 -0.0 0.0 -0.0 3.73192 11.052 -8.53325 -11.3016 -0.297882 -1.70603 33.8727 -7.06907 4.28888 -31.0481 0.0 0.0 0.0 0.0 0.0 
3525.97098804 734.421 -1495.71478593 11.971360561 75.5352859924 -6.96388596297 -1.43376 -0.176164 -2.36049 -1.43066 -0.0256457 -2.36691 -1.42708 0.530294 -2.30692 -1.43447 0.159411 -2.36168 -11.8101 3.4109 8.31254 -11.6165 1.07393 8.94029 -0.0 0.0 -0.0 4.41309 24.0175 8.78095 -10.596 -25.4077 62.4111 2.34626 -49.2846 1.07641 -81.4523 -8.00578 5.25783 -0.676721 20.3869 4.18981 -0.0 0.0 -0.0 5.12 2.94484 -9.79059 4.171 -3.43908 -60.4845 0.212276 6.00304 -0.0111306 79.1208 3.73755 8.55943 -1.40497 -8.03848 5.76181 0.0 0.0 0.0 8.88478 43.8716 -22.0843 -5.2259 0.179616 0.781631 25.2446 -14.456 -3.59882 -23.9101 0.0 0.0 -0.0 0.0 -0.0 3.73192 11.052 -8.53325 -11.3016 -0.297882 -1.70603 33.8727 -7.06907 4.28888 -31.0481 0.0 0.0 0.0 0.0 0.0 
3527.807967 734.421 -1499.52891892 9.16469954722 71.0165060356 -4.03559426234 -1.43376 -0.176164 -2.36049 -1.43066 -0.0256457 -2.36691 -1.42708 0.530294 -2.30692 -1.43447 0.159411 -2.36168 -11.8101 3.4109 8.31254 -11.6165 1.07393 8.94029 -0.0 0.0 -0.0 4.41309 24.0175 8.78095 -10.596 -25.4077 62.4111 2.34626 -49.2846 1.07641 -81.4523 -8.00578 5.25783 -0.676721 20.3869 4.18981 -0.0 0.0 -0.0 5.12 2.94484 -9.79059 4.171 -3.43908 -60.4845 0.212276 6.00304 -0.0111306 79.1208 3.73755 8.55943 -1.40497 -8.03848 5.76181 0.0 0.0 0.0 8.88478 43.8716 -22.0843 -5.2259 0.179616 0.781631 25.2446 -14.456 -3.59882 -23.9101 0.0 0.0 -0.0 0.0 -0.0 3.73192 11.052 -8.53325 -11.3016 -0.297882 -1.70603 33.8727 -7.06907 4.28888 -31.0481 0.0 0.0 0.0 0.0 0.0 
3520.32161656 734.444 -1520.02230104 6.96077782045 67.8246910135 -1.92438470895 -1.27202 -0.299539 -2.2401 -1.26924 -0.156425 -2.25461 -1.26072 0.370225 -2.22951 -1.26766 0.0135617 -2.25999 -11.2012 4.37684 8.95299 -10.9796 2.38156 9.81178 -0.0 0.0 -0.0 4.2257 22.4248 8.5449 -11.2922 -25.1966 61.6769 2.35717 -49.4159 1.0847 -82.1525 -8.09422 5.24559 -1.07116 18.6813 1.11174 -0.0 0.0 -0.0 6.51491 3.01651 -12.5912 4.04091 -8.59048 -57.8733 0.21198 5.99473 -0.0110996 80.1105 3.85129 8.61598 -2.01943 -8.24163 9.68102 0.0 0.0 0.0 10.7495 42.1142 -23.8646 -8.74821 0.260132 1.31608 24.8154 -16.9157 -3.60944 -23.004 0.0 0.0 -0.0 0.0 -0.0 2.83067 11.4976 -8.70166 -11.1659 -0.296314 -1.68527 36.1259 -7.64529 4.50977 -31.4063 0.0 0.0 0.0 0.0 0.0 
3503.5480796 734.056 -1539.59470808 9.4452851776 67.5370923502 -4.76401332635 -1.62651 -0.289294 -1.80235 -1.62472 -0.174039 -1.81709 -1.61744 0.262908 -1.80638 -1.62199 -0.0256268 -1.82523 -10.3815 5.30543 9.31433 -10.1457 3.74567 10.3874 -0.0 0.0 -0.0 3.96021 21.0899 8.17083 -11.8526 -23.902 61.4715 2.40276 -49.9571 1.11946 -81.6933 -8.03624 5.25374 -1.19062 17.2035 -0.261743 -0.0 0.0 -0.0 7.75263 4.17281 -15.1033 5.3232 -12.765 -57.8322 0.214181 6.05652 -0.0113307 81.4473 4.00643 8.68924 -2.74556 -9.04151 14.0782 0.0 0.0 0.0 12.3013 40.4862 -23.5361 -10.7507 0.291209 1.62177 24.516 -17.7773 -3.59616 -22.6902 0.0 0.0 -0.0 0.0 -0.0 0.35632 10.62 -9.10709 -11.5987 -0.301145 -1.7515 38.4002 -8.99295 4.72707 -31.2509 0.0 0.0 0.0 0.0 0.0 
